<svg width="22" height="26" viewBox="0 0 22 26" fill="none" xmlns="http://www.w3.org/2000/svg">
<g id="Group" clip-path="url(#clip0_0_75)">
<path id="Shape" fill-rule="evenodd" clip-rule="evenodd" d="M17.1569 13.1605C17.1298 10.105 19.6173 8.61844 19.731 8.54923C18.3223 6.46069 16.1388 6.17533 15.3715 6.15258C13.5376 5.95633 11.7587 7.26842 10.8245 7.26842C9.87164 7.26842 8.43305 6.17154 6.88259 6.20377C4.8874 6.23506 3.02087 7.40968 1.99717 9.23372C-0.115488 12.9529 1.46015 18.4184 3.48424 21.4246C4.49675 22.8969 5.67988 24.5408 7.22848 24.483C8.74352 24.4195 9.30944 23.5008 11.1377 23.5008C12.9493 23.5008 13.4807 24.483 15.0601 24.446C16.686 24.4195 17.7097 22.9671 18.6868 21.4815C19.8569 19.794 20.3268 18.1321 20.3454 18.0467C20.3072 18.0335 17.1876 16.8228 17.1569 13.1605Z" fill="white"/>
<path id="Shape_2" fill-rule="evenodd" clip-rule="evenodd" d="M14.1733 4.17514C14.9882 3.13892 15.5457 1.72918 15.391 0.298584C14.2116 0.351674 12.7366 1.12812 11.8873 2.14158C11.1358 3.03464 10.4645 4.49842 10.6379 5.87498C11.9628 5.97547 13.3231 5.19523 14.1733 4.17514Z" fill="white"/>
</g>
<defs>
<clipPath id="clip0_0_75">
<rect width="21" height="25" fill="white" transform="translate(0.255615 0.0927734)"/>
</clipPath>
</defs>
</svg>
