<svg width="76" height="18" viewBox="0 0 76 18" fill="none" xmlns="http://www.w3.org/2000/svg">
<g id="Group" clip-path="url(#clip0_0_78)">
<path id="Shape" fill-rule="evenodd" clip-rule="evenodd" d="M11.0826 13.2716H8.96532L7.8055 9.5657H3.77411L2.66929 13.2716H0.60791L4.60202 0.655029H7.06896L11.0826 13.2716ZM7.45588 8.0109L6.40701 4.71645C6.29606 4.3799 6.08815 3.58733 5.78141 2.3397H5.74412C5.62199 2.8763 5.42526 3.66886 5.15489 4.71645L4.12466 8.0109H7.45588Z" fill="white"/>
<path id="Shape_2" fill-rule="evenodd" clip-rule="evenodd" d="M21.354 8.61116C21.354 10.1584 20.9428 11.3813 20.1205 12.2791C19.3839 13.0783 18.4693 13.4775 17.3776 13.4775C16.1991 13.4775 15.3525 13.0471 14.837 12.1862H14.7997V16.9786H12.8119V7.16919C12.8119 6.19649 12.7868 5.1982 12.7383 4.17431H14.4864L14.5973 5.61629H14.6346C15.2975 4.52983 16.3035 3.98755 17.6535 3.98755C18.7089 3.98755 19.59 4.41132 20.2948 5.25982C21.0015 6.10927 21.354 7.22607 21.354 8.61116ZM19.3289 8.68511C19.3289 7.79963 19.1331 7.06964 18.7397 6.49513C18.3099 5.89596 17.7328 5.59638 17.0093 5.59638C16.5189 5.59638 16.0732 5.76324 15.6751 6.09221C15.2761 6.42402 15.015 6.85728 14.8929 7.39387C14.8314 7.64416 14.8006 7.84893 14.8006 8.0101V9.52697C14.8006 10.1887 15.0001 10.7471 15.3992 11.2031C15.7982 11.6591 16.3166 11.8867 16.9543 11.8867C17.7029 11.8867 18.2856 11.5928 18.7024 11.0069C19.1201 10.42 19.3289 9.64643 19.3289 8.68511Z" fill="white"/>
<path id="Shape_3" fill-rule="evenodd" clip-rule="evenodd" d="M31.6443 8.61116C31.6443 10.1584 31.2331 11.3813 30.4099 12.2791C29.6743 13.0783 28.7596 13.4775 27.6679 13.4775C26.4894 13.4775 25.6429 13.0471 25.1282 12.1862H25.0909V16.9786H23.1032V7.16919C23.1032 6.19649 23.078 5.1982 23.0295 4.17431H24.7777L24.8886 5.61629H24.9259C25.5879 4.52983 26.5938 3.98755 27.9448 3.98755C28.9993 3.98755 29.8803 4.41132 30.587 5.25982C31.2909 6.10927 31.6443 7.22607 31.6443 8.61116ZM29.6193 8.68511C29.6193 7.79963 29.4225 7.06964 29.0291 6.49513C28.5993 5.89596 28.024 5.59638 27.2996 5.59638C26.8083 5.59638 26.3636 5.76324 25.9645 6.09221C25.5655 6.42402 25.3054 6.85728 25.1832 7.39387C25.1226 7.64416 25.0909 7.84893 25.0909 8.0101V9.52697C25.0909 10.1887 25.2904 10.7471 25.6876 11.2031C26.0867 11.6582 26.605 11.8867 27.2446 11.8867C27.9933 11.8867 28.576 11.5928 28.9927 11.0069C29.4104 10.42 29.6193 9.64643 29.6193 8.68511Z" fill="white"/>
<path id="Shape_4" fill-rule="evenodd" clip-rule="evenodd" d="M43.1492 9.73356C43.1492 10.8067 42.7828 11.6799 42.0472 12.3539C41.2389 13.0906 40.1136 13.4584 38.6675 13.4584C37.3324 13.4584 36.2621 13.1968 35.4519 12.6725L35.9125 10.9878C36.7851 11.5244 37.7426 11.7937 38.7859 11.7937C39.5346 11.7937 40.1173 11.6211 40.5359 11.2779C40.9527 10.9347 41.1606 10.474 41.1606 9.89946C41.1606 9.38752 40.989 8.95616 40.645 8.60633C40.3028 8.2565 39.7313 7.93132 38.9332 7.63079C36.7609 6.80694 35.6757 5.60008 35.6757 4.01306C35.6757 2.9759 36.0561 2.1255 36.8178 1.46377C37.5767 0.801082 38.5892 0.470215 39.8553 0.470215C40.9844 0.470215 41.9223 0.670252 42.6709 1.06938L42.174 2.71708C41.4748 2.33028 40.6841 2.13688 39.7994 2.13688C39.1001 2.13688 38.5538 2.31226 38.1622 2.66115C37.8312 2.97305 37.6653 3.35322 37.6653 3.80354C37.6653 4.30221 37.8545 4.71461 38.2349 5.03884C38.5659 5.33842 39.1672 5.66265 40.0399 6.01248C41.1074 6.44953 41.8915 6.96053 42.3959 7.54642C42.8984 8.13041 43.1492 8.86135 43.1492 9.73356Z" fill="white"/>
<path id="Shape_5" fill-rule="evenodd" clip-rule="evenodd" d="M49.7212 5.69112H47.5303V10.1081C47.5303 11.2315 47.9163 11.7927 48.6901 11.7927C49.0453 11.7927 49.3399 11.7614 49.573 11.6989L49.628 13.2338C49.2364 13.3826 48.7209 13.4575 48.0822 13.4575C47.2972 13.4575 46.6837 13.2138 46.2409 12.7275C45.7999 12.2402 45.578 11.423 45.578 10.2749V5.68922H44.2727V4.17235H45.578V2.50663L47.5303 1.90747V4.17235H49.7212V5.69112Z" fill="white"/>
<path id="Shape_6" fill-rule="evenodd" clip-rule="evenodd" d="M59.6067 8.64792C59.6067 10.0463 59.2133 11.1944 58.4283 12.0922C57.605 13.0165 56.5123 13.4773 55.1502 13.4773C53.8375 13.4773 52.7923 13.0345 52.0129 12.149C51.2335 11.2636 50.8438 10.1458 50.8438 8.79866C50.8438 7.38892 51.2447 6.2342 52.0493 5.3364C52.852 4.43765 53.9354 3.98828 55.2975 3.98828C56.6102 3.98828 57.6665 4.43102 58.4637 5.31744C59.2263 6.17732 59.6067 7.28748 59.6067 8.64792ZM57.5444 8.71333C57.5444 7.87431 57.3682 7.15475 57.0111 6.55464C56.5944 5.82844 55.9986 5.46628 55.2266 5.46628C54.4276 5.46628 53.8207 5.82938 53.4039 6.55464C53.0468 7.1557 52.8706 7.88664 52.8706 8.75126C52.8706 9.59027 53.0468 10.3098 53.4039 10.909C53.8337 11.6352 54.4342 11.9974 55.2089 11.9974C55.9678 11.9974 56.5636 11.6276 56.9934 10.89C57.3598 10.2786 57.5444 9.5514 57.5444 8.71333Z" fill="white"/>
<path id="Shape_7" fill-rule="evenodd" clip-rule="evenodd" d="M66.0678 5.9519C65.8711 5.91492 65.6613 5.89596 65.4413 5.89596C64.7421 5.89596 64.2013 6.16426 63.8209 6.7018C63.4899 7.17582 63.324 7.77499 63.324 8.49834V13.2717H61.3372L61.3558 7.0393C61.3558 5.99077 61.3307 5.03609 61.2812 4.17526H63.0126L63.0853 5.91587H63.1403C63.3501 5.31765 63.6811 4.83605 64.1342 4.47484C64.577 4.14966 65.0553 3.98755 65.5709 3.98755C65.7546 3.98755 65.9205 4.00082 66.0678 4.02452V5.9519Z" fill="white"/>
<path id="Shape_8" fill-rule="evenodd" clip-rule="evenodd" d="M74.9575 8.29259C74.9575 8.65475 74.9342 8.96002 74.8848 9.20935H68.9216C68.9449 10.1081 69.233 10.7954 69.7868 11.2695C70.2893 11.6932 70.9392 11.9056 71.7372 11.9056C72.6202 11.9056 73.4257 11.7624 74.1501 11.4752L74.4615 12.8783C73.615 13.2537 72.6155 13.4405 71.4622 13.4405C70.0749 13.4405 68.9859 13.0252 68.1934 12.1957C67.4028 11.3662 67.0066 10.2522 67.0066 8.85478C67.0066 7.48296 67.3749 6.34057 68.1123 5.4295C68.8843 4.45681 69.9276 3.97046 71.2403 3.97046C72.5297 3.97046 73.5059 4.45681 74.1688 5.4295C74.6937 6.20216 74.9575 7.15778 74.9575 8.29259ZM73.0621 7.76832C73.0751 7.16916 72.9455 6.65153 72.6761 6.21448C72.3321 5.65229 71.8034 5.37167 71.0921 5.37167C70.4422 5.37167 69.9136 5.64565 69.5099 6.19552C69.1789 6.63257 68.9822 7.15684 68.9216 7.76738H73.0621V7.76832Z" fill="white"/>
</g>
<defs>
<clipPath id="clip0_0_78">
<rect width="75" height="17" fill="white" transform="translate(0.225586 0.469238)"/>
</clipPath>
</defs>
</svg>
