<svg width="74" height="9" viewBox="0 0 74 9" fill="none" xmlns="http://www.w3.org/2000/svg">
<g id="Group" clip-path="url(#clip0_0_97)">
<path id="Shape" fill-rule="evenodd" clip-rule="evenodd" d="M5.79868 3.89344C5.79868 5.00929 5.46956 5.84925 4.81227 6.41334C4.20346 6.93382 3.33825 7.19453 2.21759 7.19453C1.66192 7.19453 1.18644 7.16988 0.78833 7.12058V1.02371C1.30764 0.938385 1.86704 0.894775 2.47119 0.894775C3.53871 0.894775 4.34331 1.13084 4.88592 1.60296C5.4938 2.13671 5.79868 2.89989 5.79868 3.89344ZM4.76845 3.92093C4.76845 3.19757 4.58012 2.64297 4.20346 2.25617C3.8268 1.87031 3.27672 1.67691 2.5523 1.67691C2.24463 1.67691 1.98265 1.69777 1.76541 1.74138V6.37637C1.88568 6.39533 2.10571 6.40386 2.4255 6.40386C3.17323 6.40386 3.75034 6.19245 4.15684 5.76962C4.56334 5.34679 4.76845 4.73056 4.76845 3.92093Z" fill="white"/>
<path id="Shape_2" fill-rule="evenodd" clip-rule="evenodd" d="M11.2611 4.86817C11.2611 5.5555 11.0681 6.11864 10.6821 6.56043C10.2775 7.01454 9.74142 7.24112 9.072 7.24112C8.42683 7.24112 7.91311 7.02402 7.52993 6.58792C7.14767 6.15277 6.95654 5.60385 6.95654 4.94212C6.95654 4.25004 7.15326 3.68217 7.54857 3.24132C7.94388 2.80048 8.47531 2.57959 9.14472 2.57959C9.7899 2.57959 10.3083 2.79669 10.7008 3.23184C11.0737 3.65467 11.2611 4.20075 11.2611 4.86817ZM10.2477 4.9004C10.2477 4.488 10.16 4.13438 9.98569 3.83954C9.78057 3.48308 9.48875 3.30484 9.10929 3.30484C8.71678 3.30484 8.41844 3.48308 8.21332 3.83954C8.03805 4.13438 7.95134 4.49369 7.95134 4.91842C7.95134 5.33081 8.03898 5.68443 8.21332 5.97928C8.42496 6.33574 8.71958 6.51397 9.09997 6.51397C9.4729 6.51397 9.76566 6.3329 9.97636 5.9698C10.1572 5.66927 10.2477 5.3128 10.2477 4.9004Z" fill="white"/>
<path id="Shape_3" fill-rule="evenodd" clip-rule="evenodd" d="M18.5856 2.67041L17.2104 7.13949H16.3154L15.7457 5.19884C15.6012 4.71439 15.4837 4.23279 15.3924 3.75497H15.3746C15.2898 4.24606 15.1723 4.72672 15.0213 5.19884L14.4162 7.13949H13.5109L12.2178 2.67041H13.2219L13.7188 4.79498C13.8391 5.29744 13.9379 5.7762 14.0172 6.22937H14.0349C14.1076 5.85584 14.2279 5.37992 14.3976 4.80446L15.0213 2.67136H15.8175L16.4151 4.75895C16.5596 5.26805 16.6771 5.75819 16.7675 6.23032H16.7946C16.8608 5.77051 16.9605 5.28038 17.0929 4.75895L17.6262 2.67136H18.5856V2.67041Z" fill="white"/>
<path id="Shape_4" fill-rule="evenodd" clip-rule="evenodd" d="M23.6507 7.1396H22.6736V4.57988C22.6736 3.7911 22.379 3.39672 21.7879 3.39672C21.498 3.39672 21.264 3.5048 21.0822 3.7219C20.9022 3.939 20.8109 4.19497 20.8109 4.48792V7.13865H19.8338V3.94753C19.8338 3.55504 19.8216 3.12937 19.7983 2.66862H20.657L20.7027 3.36733H20.7297C20.8435 3.15023 21.0132 2.97105 21.236 2.82789C21.5008 2.66104 21.7973 2.57666 22.1217 2.57666C22.5319 2.57666 22.8732 2.71128 23.1445 2.98148C23.482 3.31234 23.6507 3.80627 23.6507 4.46232V7.1396Z" fill="white"/>
<path id="Shape_5" fill-rule="evenodd" clip-rule="evenodd" d="M26.3453 7.13957H25.3691V0.619873H26.3453V7.13957Z" fill="white"/>
<path id="Shape_6" fill-rule="evenodd" clip-rule="evenodd" d="M32.0978 4.86817C32.0978 5.5555 31.9048 6.11864 31.5188 6.56043C31.1142 7.01454 30.5772 7.24112 29.9087 7.24112C29.2626 7.24112 28.7489 7.02402 28.3666 6.58792C27.9843 6.15277 27.7932 5.60385 27.7932 4.94212C27.7932 4.25004 27.9899 3.68217 28.3852 3.24132C28.7806 2.80048 29.312 2.57959 29.9805 2.57959C30.6266 2.57959 31.144 2.79669 31.5375 3.23184C31.9104 3.65467 32.0978 4.20075 32.0978 4.86817ZM31.0834 4.9004C31.0834 4.488 30.9958 4.13438 30.8214 3.83954C30.6172 3.48308 30.3245 3.30484 29.946 3.30484C29.5525 3.30484 29.2542 3.48308 29.05 3.83954C28.8747 4.13438 28.788 4.49369 28.788 4.91842C28.788 5.33081 28.8756 5.68443 29.05 5.97928C29.2616 6.33574 29.5563 6.51397 29.9366 6.51397C30.3096 6.51397 30.6014 6.3329 30.8121 5.9698C30.9939 5.66927 31.0834 5.3128 31.0834 4.9004Z" fill="white"/>
<path id="Shape_7" fill-rule="evenodd" clip-rule="evenodd" d="M36.8266 7.13968H35.9493L35.8766 6.62489H35.8495C35.5493 7.0354 35.1214 7.24112 34.5657 7.24112C34.1508 7.24112 33.8152 7.10555 33.5625 6.83631C33.3332 6.59171 33.2185 6.28739 33.2185 5.92619C33.2185 5.38011 33.4423 4.96392 33.8926 4.67572C34.342 4.38751 34.9741 4.24625 35.788 4.25289V4.16946C35.788 3.58072 35.4841 3.28683 34.8753 3.28683C34.4417 3.28683 34.0595 3.39775 33.7294 3.6177L33.5308 2.96544C33.9392 2.70852 34.4436 2.57959 35.0384 2.57959C36.187 2.57959 36.7632 3.19582 36.7632 4.42828V6.07408C36.7632 6.52061 36.7847 6.87613 36.8266 7.13968ZM35.8123 5.60385V4.91462C34.7345 4.89566 34.1956 5.19619 34.1956 5.81526C34.1956 6.04848 34.2571 6.22292 34.383 6.33953C34.5089 6.45614 34.6692 6.51397 34.8603 6.51397C35.0748 6.51397 35.2752 6.44477 35.458 6.3073C35.6416 6.16889 35.7544 5.9935 35.7964 5.77829C35.8067 5.72994 35.8123 5.67116 35.8123 5.60385Z" fill="white"/>
<path id="Shape_8" fill-rule="evenodd" clip-rule="evenodd" d="M42.3786 7.13957H41.5115L41.4658 6.4219H41.4388C41.1619 6.96798 40.6901 7.24101 40.0273 7.24101C39.4977 7.24101 39.0567 7.0296 38.7071 6.60677C38.3575 6.18394 38.1831 5.63503 38.1831 4.96097C38.1831 4.23761 38.3724 3.65172 38.7528 3.20424C39.121 2.7871 39.5723 2.57853 40.1093 2.57853C40.6995 2.57853 41.1125 2.78047 41.3474 3.18528H41.3661V0.619873H42.3441V5.93556C42.3441 6.37071 42.3553 6.77173 42.3786 7.13957ZM41.3661 5.25486V4.5097C41.3661 4.38076 41.3568 4.27648 41.339 4.19684C41.284 3.95794 41.1656 3.75695 40.9857 3.59484C40.8039 3.43272 40.5848 3.35119 40.3321 3.35119C39.9676 3.35119 39.6823 3.49814 39.4725 3.79298C39.2646 4.08782 39.1593 4.46419 39.1593 4.92399C39.1593 5.36578 39.259 5.72414 39.4595 6.00002C39.6711 6.29392 39.9564 6.44087 40.3135 6.44087C40.6342 6.44087 40.8906 6.31857 41.0855 6.07302C41.2738 5.84644 41.3661 5.5734 41.3661 5.25486Z" fill="white"/>
<path id="Shape_9" fill-rule="evenodd" clip-rule="evenodd" d="M50.735 4.86817C50.735 5.5555 50.542 6.11864 50.156 6.56043C49.7514 7.01454 49.2162 7.24112 48.5459 7.24112C47.9016 7.24112 47.3879 7.02402 47.0038 6.58792C46.6215 6.15277 46.4304 5.60385 46.4304 4.94212C46.4304 4.25004 46.6271 3.68217 47.0224 3.24132C47.4178 2.80048 47.9492 2.57959 48.6195 2.57959C49.2638 2.57959 49.7831 2.79669 50.1747 3.23184C50.5476 3.65467 50.735 4.20075 50.735 4.86817ZM49.7225 4.9004C49.7225 4.488 49.6348 4.13438 49.4605 3.83954C49.2544 3.48308 48.9636 3.30484 48.5832 3.30484C48.1916 3.30484 47.8932 3.48308 47.6872 3.83954C47.5119 4.13438 47.4252 4.49369 47.4252 4.91842C47.4252 5.33081 47.5129 5.68443 47.6872 5.97928C47.8988 6.33574 48.1935 6.51397 48.5738 6.51397C48.9468 6.51397 49.2405 6.3329 49.4512 5.9698C49.6311 5.66927 49.7225 5.3128 49.7225 4.9004Z" fill="white"/>
<path id="Shape_10" fill-rule="evenodd" clip-rule="evenodd" d="M55.9887 7.1396H55.0125V4.57988C55.0125 3.7911 54.7179 3.39672 54.1259 3.39672C53.8359 3.39672 53.6019 3.5048 53.421 3.7219C53.2402 3.939 53.1497 4.19497 53.1497 4.48792V7.13865H52.1717V3.94753C52.1717 3.55504 52.1605 3.12937 52.1372 2.66862H52.995L53.0406 3.36733H53.0677C53.1823 3.15023 53.352 2.97105 53.5739 2.82789C53.8396 2.66104 54.1352 2.57666 54.4606 2.57666C54.8699 2.57666 55.2111 2.71128 55.4824 2.98148C55.8208 3.31234 55.9887 3.80627 55.9887 4.46232V7.1396Z" fill="white"/>
<path id="Shape_11" fill-rule="evenodd" clip-rule="evenodd" d="M62.5644 3.41484H61.4885V5.58586C61.4885 6.13762 61.6796 6.4135 62.0582 6.4135C62.2334 6.4135 62.3789 6.39833 62.4936 6.36705L62.5187 7.12074C62.3257 7.19469 62.0721 7.23166 61.7598 7.23166C61.3738 7.23166 61.0736 7.11221 60.8564 6.8733C60.6382 6.63439 60.5301 6.23242 60.5301 5.66834V3.41484H59.8877V2.67062H60.5301V1.85151L61.4876 1.55762V2.66967H62.5635V3.41484H62.5644Z" fill="white"/>
<path id="Shape_12" fill-rule="evenodd" clip-rule="evenodd" d="M67.7371 7.13957H66.7591V4.59881C66.7591 3.79772 66.4645 3.39669 65.8743 3.39669C65.4212 3.39669 65.1117 3.62897 64.942 4.09351C64.9131 4.19116 64.8963 4.31061 64.8963 4.45092V7.13863H63.9202V0.619873H64.8963V3.31327H64.915C65.2226 2.82313 65.6636 2.57853 66.2351 2.57853C66.6398 2.57853 66.9745 2.71315 67.2402 2.98335C67.5712 3.3199 67.7371 3.82047 67.7371 4.48221V7.13957Z" fill="white"/>
<path id="Shape_13" fill-rule="evenodd" clip-rule="evenodd" d="M73.0727 4.69372C73.0727 4.87195 73.0596 5.02174 73.0363 5.14404H70.106C70.1191 5.58583 70.2589 5.92238 70.5302 6.1556C70.7782 6.36417 71.098 6.46845 71.4896 6.46845C71.9231 6.46845 72.3184 6.3983 72.6746 6.25704L72.8275 6.94722C72.4107 7.13114 71.9203 7.2231 71.3525 7.2231C70.6719 7.2231 70.1358 7.01927 69.748 6.61161C69.3583 6.20395 69.1653 5.65693 69.1653 4.97055C69.1653 4.29649 69.3452 3.73524 69.7079 3.28777C70.0864 2.80995 70.5983 2.57104 71.2444 2.57104C71.8765 2.57104 72.3567 2.80995 72.6811 3.28777C72.9431 3.66698 73.0727 4.13627 73.0727 4.69372ZM72.1404 4.4368C72.1478 4.14195 72.0835 3.88788 71.9511 3.67362C71.7814 3.39774 71.5231 3.25933 71.1735 3.25933C70.8547 3.25933 70.5945 3.39395 70.396 3.66414C70.2337 3.87935 70.1377 4.13627 70.106 4.4368H72.1404Z" fill="white"/>
</g>
<defs>
<clipPath id="clip0_0_97">
<rect width="73" height="8" fill="white" transform="translate(0.157959 0.0927734)"/>
</clipPath>
</defs>
</svg>
