<svg width="32" height="32" viewBox="0 0 32 32" fill="none" xmlns="http://www.w3.org/2000/svg">
<g id="Group" clip-path="url(#clip0_0_615)">
<g id="Shape" filter="url(#filter0_d_0_615)">
<path fill-rule="evenodd" clip-rule="evenodd" d="M15.9999 6C9.33325 6 3.63992 10.1467 1.33325 16C3.63992 21.8533 9.33325 26 15.9999 26C22.6666 26 28.3599 21.8533 30.6666 16C28.3599 10.1467 22.6666 6 15.9999 6ZM15.9999 22.6667C12.3199 22.6667 9.33325 19.68 9.33325 16C9.33325 12.32 12.3199 9.33333 15.9999 9.33333C19.6799 9.33333 22.6666 12.32 22.6666 16C22.6666 19.68 19.6799 22.6667 15.9999 22.6667ZM15.9999 12C13.7866 12 11.9999 13.7867 11.9999 16C11.9999 18.2133 13.7866 20 15.9999 20C18.2133 20 19.9999 18.2133 19.9999 16C19.9999 13.7867 18.2133 12 15.9999 12Z" fill="white"/>
</g>
</g>
<defs>
<filter id="filter0_d_0_615" x="-0.666748" y="6" width="33.3333" height="24" filterUnits="userSpaceOnUse" color-interpolation-filters="sRGB">
<feFlood flood-opacity="0" result="BackgroundImageFix"/>
<feColorMatrix in="SourceAlpha" type="matrix" values="0 0 0 0 0 0 0 0 0 0 0 0 0 0 0 0 0 0 127 0" result="hardAlpha"/>
<feOffset dy="2"/>
<feGaussianBlur stdDeviation="1"/>
<feColorMatrix type="matrix" values="0 0 0 0 0 0 0 0 0 0 0 0 0 0 0 0 0 0 0.12 0"/>
<feBlend mode="normal" in2="BackgroundImageFix" result="effect1_dropShadow_0_615"/>
<feBlend mode="normal" in="SourceGraphic" in2="effect1_dropShadow_0_615" result="shape"/>
</filter>
<clipPath id="clip0_0_615">
<rect width="32" height="32" fill="white"/>
</clipPath>
</defs>
</svg>
